{
  "accessors": [
    {
      "bufferView": 2,
      "componentType": 5126,
      "count": 744,
      "max": [
        0.5720049738883972,
        0.6601099967956543,
        -0.856652021408081
      ],
      "min": [
        -0.5720049738883972,
        -0.6601099967956543,
        -1.0
      ],
      "type": "VEC3"
    },
    {
      "bufferView": 2,
      "byteOffset": 8928,
      "componentType": 5126,
      "count": 744,
      "max": [
        1.0,
        0.9999833703041077,
        1.0
      ],
      "min": [
        -1.0,
        -0.9999833703041077,
        -1.0
      ],
      "type": "VEC3"
    },
    {
      "bufferView": 3,
      "componentType": 5126,
      "count": 744,
      "max": [
        1.0,
        0.9999995827674866,
        0.8184038996696472,
        1.0
      ],
      "min": [
        -0.999981701374054,
        -0.999999463558197,
        -0.8805374503135681,
        -1.0
      ],
      "type": "VEC4"
    },
    {
      "bufferView": 1,
      "componentType": 5126,
      "count": 744,
      "max": [
        0.9710109829902649,
        0.9744709730148315
      ],
      "min": [
        0.029131999239325523,
        0.011090000160038471
      ],
      "type": "VEC2"
    },
    {
      "bufferView": 0,
      "componentType": 5125,
      "count": 3000,
      "type": "SCALAR"
    },
    {
      "bufferView": 2,
      "byteOffset": 17856,
      "componentType": 5126,
      "count": 19679,
      "max": [
        0.5673869848251343,
        0.22508099675178528,
        0.04916410148143768
      ],
      "min": [
        -0.5673869848251343,
        -0.22492599487304688,
        -0.8572999835014343
      ],
      "type": "VEC3"
    },
    {
      "bufferView": 2,
      "byteOffset": 254004,
      "componentType": 5126,
      "count": 19679,
      "max": [
        0.9999995827674866,
        0.9999127388000488,
        0.9999989867210388
      ],
      "min": [
        -0.9999995827674866,
        -0.999997615814209,
        -0.9999970197677612
      ],
      "type": "VEC3"
    },
    {
      "bufferView": 3,
      "byteOffset": 11904,
      "componentType": 5126,
      "count": 19679,
      "max": [
        1.0,
        0.9999982714653015,
        0.998335599899292,
        1.0
      ],
      "min": [
        -0.999998927116394,
        -0.9999983906745911,
        -0.9984199404716492,
        -1.0
      ],
      "type": "VEC4"
    },
    {
      "bufferView": 1,
      "byteOffset": 5952,
      "componentType": 5126,
      "count": 19679,
      "max": [
        0.9851229786872864,
        0.9857439994812012
      ],
      "min": [
        0.014795499853789806,
        0.010791899636387825
      ],
      "type": "VEC2"
    },
    {
      "bufferView": 0,
      "byteOffset": 12000,
      "componentType": 5125,
      "count": 113136,
      "type": "SCALAR"
    },
    {
      "bufferView": 2,
      "byteOffset": 490152,
      "componentType": 5126,
      "count": 21276,
      "max": [
        0.5182399749755859,
        0.4500580132007599,
        1.0
      ],
      "min": [
        -0.5182399749755859,
        -0.4718930125236511,
        -0.036479901522397995
      ],
      "type": "VEC3"
    },
    {
      "bufferView": 2,
      "byteOffset": 745464,
      "componentType": 5126,
      "count": 21276,
      "max": [
        1.0,
        1.0,
        1.0
      ],
      "min": [
        -1.0,
        -1.0,
        -1.0
      ],
      "type": "VEC3"
    },
    {
      "bufferView": 3,
      "byteOffset": 326768,
      "componentType": 5126,
      "count": 21276,
      "max": [
        1.0,
        1.0,
        1.0,
        1.0
      ],
      "min": [
        -1.0,
        -1.0,
        -1.0,
        -1.0
      ],
      "type": "VEC4"
    },
    {
      "bufferView": 1,
      "byteOffset": 163384,
      "componentType": 5126,
      "count": 21276,
      "max": [
        1.0,
        0.996504008769989
      ],
      "min": [
        0.0,
        0.009863000363111496
      ],
      "type": "VEC2"
    },
    {
      "bufferView": 0,
      "byteOffset": 464544,
      "componentType": 5125,
      "count": 121110,
      "type": "SCALAR"
    }
  ],
  "asset": {
    "extras": {
      "author": "TheKnightDuck (https://sketchfab.com/lordfelps14)",
      "license": "CC-BY-4.0 (http://creativecommons.org/licenses/by/4.0/)",
      "source": "https://sketchfab.com/3d-models/meet-mat2-astronaut-2768bcd97f464e30a6c79df2c3497786",
      "title": "Meet Mat2 Astronaut"
    },
    "generator": "Sketchfab-12.65.0",
    "version": "2.0"
  },
  "bufferViews": [
    {
      "buffer": 0,
      "byteLength": 948984,
      "name": "floatBufferViews",
      "target": 34963
    },
    {
      "buffer": 0,
      "byteLength": 333592,
      "byteOffset": 948984,
      "byteStride": 8,
      "name": "floatBufferViews",
      "target": 34962
    },
    {
      "buffer": 0,
      "byteLength": 1000776,
      "byteOffset": 1282576,
      "byteStride": 12,
      "name": "floatBufferViews",
      "target": 34962
    },
    {
      "buffer": 0,
      "byteLength": 667184,
      "byteOffset": 2283352,
      "byteStride": 16,
      "name": "floatBufferViews",
      "target": 34962
    }
  ],
  "buffers": [
    {
      "byteLength": 2950536,
      "uri": "scene.bin"
    }
  ],
  "images": [
    {
      "uri": "textures/Base1_baseColor.png"
    },
    {
      "uri": "textures/Base1_metallicRoughness.png"
    },
    {
      "uri": "textures/Base1_emissive.png"
    },
    {
      "uri": "textures/Base1_normal.png"
    },
    {
      "uri": "textures/Body1_baseColor.png"
    },
    {
      "uri": "textures/Body1_metallicRoughness.png"
    },
    {
      "uri": "textures/Body1_normal.png"
    },
    {
      "uri": "textures/Head1_baseColor.png"
    },
    {
      "uri": "textures/Head1_metallicRoughness.png"
    },
    {
      "uri": "textures/Head1_normal.png"
    }
  ],
  "materials": [
    {
      "emissiveFactor": [
        1.0,
        1.0,
        1.0
      ],
      "emissiveTexture": {
        "index": 2
      },
      "name": "Base1",
      "normalTexture": {
        "index": 3
      },
      "occlusionTexture": {
        "index": 1
      },
      "pbrMetallicRoughness": {
        "baseColorTexture": {
          "index": 0
        },
        "metallicRoughnessTexture": {
          "index": 1
        }
      }
    },
    {
      "doubleSided": true,
      "name": "Body1",
      "normalTexture": {
        "index": 6
      },
      "occlusionTexture": {
        "index": 5
      },
      "pbrMetallicRoughness": {
        "baseColorTexture": {
          "index": 4
        },
        "metallicRoughnessTexture": {
          "index": 5
        }
      }
    },
    {
      "doubleSided": true,
      "name": "Head1",
      "normalTexture": {
        "index": 9
      },
      "occlusionTexture": {
        "index": 8
      },
      "pbrMetallicRoughness": {
        "baseColorTexture": {
          "index": 7
        },
        "metallicRoughnessTexture": {
          "index": 8
        }
      }
    }
  ],
  "meshes": [
    {
      "name": "Object_0",
      "primitives": [
        {
          "attributes": {
            "NORMAL": 1,
            "POSITION": 0,
            "TANGENT": 2,
            "TEXCOORD_0": 3
          },
          "indices": 4,
          "material": 0,
          "mode": 4
        }
      ]
    },
    {
      "name": "Object_1",
      "primitives": [
        {
          "attributes": {
            "NORMAL": 6,
            "POSITION": 5,
            "TANGENT": 7,
            "TEXCOORD_0": 8
          },
          "indices": 9,
          "material": 1,
          "mode": 4
        }
      ]
    },
    {
      "name": "Object_2",
      "primitives": [
        {
          "attributes": {
            "NORMAL": 11,
            "POSITION": 10,
            "TANGENT": 12,
            "TEXCOORD_0": 13
          },
          "indices": 14,
          "material": 2,
          "mode": 4
        }
      ]
    }
  ],
  "nodes": [
    {
      "children": [
        1
      ],
      "matrix": [
        1.0,
        0.0,
        0.0,
        0.0,
        0.0,
        2.220446049250313e-16,
        -1.0,
        0.0,
        0.0,
        1.0,
        2.220446049250313e-16,
        0.0,
        0.0,
        0.0,
        0.0,
        1.0
      ],
      "name": "Sketchfab_model"
    },
    {
      "children": [
        2,
        3,
        4
      ],
      "name": "MettMat2.obj.cleaner.materialmerger.gles"
    },
    {
      "mesh": 0,
      "name": "Object_2"
    },
    {
      "mesh": 1,
      "name": "Object_3"
    },
    {
      "mesh": 2,
      "name": "Object_4"
    }
  ],
  "samplers": [
    {
      "magFilter": 9729,
      "minFilter": 9987,
      "wrapS": 10497,
      "wrapT": 10497
    }
  ],
  "scene": 0,
  "scenes": [
    {
      "name": "Sketchfab_Scene",
      "nodes": [
        0
      ]
    }
  ],
  "textures": [
    {
      "sampler": 0,
      "source": 0
    },
    {
      "sampler": 0,
      "source": 1
    },
    {
      "sampler": 0,
      "source": 2
    },
    {
      "sampler": 0,
      "source": 3
    },
    {
      "sampler": 0,
      "source": 4
    },
    {
      "sampler": 0,
      "source": 5
    },
    {
      "sampler": 0,
      "source": 6
    },
    {
      "sampler": 0,
      "source": 7
    },
    {
      "sampler": 0,
      "source": 8
    },
    {
      "sampler": 0,
      "source": 9
    }
  ]
}
